<svg width="375" height="156" viewBox="0 0 375 156" fill="none" xmlns="http://www.w3.org/2000/svg">
<g clip-path="url(#clip0)">
<rect width="375" height="156" fill="#5CA3A3"/>
<path fill-rule="evenodd" clip-rule="evenodd" d="M-86.7321 487.429C-138.164 436.004 -138.17 352.623 -86.7451 301.192L-86.7321 301.179L309.926 -95.424C361.367 -146.858 444.762 -146.858 496.203 -95.424C547.634 -44 547.64 39.38 496.216 90.813C496.211 90.817 496.206 90.821 496.203 90.826L99.5429 487.429C48.1029 538.862 -35.2911 538.862 -86.7321 487.429ZM-531.424 559.253C-582.856 507.829 -582.862 424.447 -531.437 373.016L-531.424 373.003L-134.766 -23.6C-83.3251 -75.034 0.0699463 -75.034 51.5109 -23.6C102.942 27.824 102.948 111.205 51.5239 162.637L51.5109 162.65L-345.149 559.253C-396.589 610.686 -479.983 610.686 -531.424 559.253Z" fill="#63BABA"/>
</g>
<defs>
<clipPath id="clip0">
<rect width="375" height="156" fill="white"/>
</clipPath>
</defs>
</svg>
