<svg width="1440" height="156" viewBox="0 0 1440 156" fill="none" xmlns="http://www.w3.org/2000/svg">
<g clip-path="url(#clip0)">
<rect width="1440" height="156" fill="#5CA3A3"/>
<path fill-rule="evenodd" clip-rule="evenodd" d="M496.069 563.429C441.851 512.004 441.845 428.623 496.056 377.192L496.069 377.179L914.216 -19.424C968.443 -70.858 1056.36 -70.858 1110.58 -19.424C1162.04 29.38 1164.67 106.968 1118.46 158.711L1306.27 -19.424C1360.5 -70.858 1448.41 -70.858 1502.64 -19.424C1556.86 32 1556.86 115.381 1502.65 166.813C1502.65 166.817 1502.64 166.821 1502.64 166.826L1084.49 563.429C1030.26 614.862 942.351 614.862 888.124 563.429C836.667 514.624 834.04 437.035 880.248 385.291L692.437 563.43C638.209 614.863 550.296 614.863 496.069 563.43V563.429ZM360.81 45.605C306.591 -5.82001 306.585 -89.201 360.796 -140.632L360.81 -140.645L778.956 -537.248C833.183 -588.682 921.096 -588.682 975.324 -537.248C1029.54 -485.824 1029.55 -402.443 975.338 -351.011C975.332 -351.007 975.327 -351.003 975.324 -350.998L557.176 45.605C502.949 97.038 415.037 97.038 360.81 45.605ZM-107.973 117.429C-162.191 66.005 -162.197 -17.377 -107.986 -68.808L-107.973 -68.821L310.173 -465.424C364.401 -516.858 452.314 -516.858 506.542 -465.424C560.759 -414 560.765 -330.619 506.555 -279.187C506.551 -279.183 506.546 -279.178 506.542 -279.174L88.3924 117.429C34.1657 168.862 -53.746 168.862 -107.974 117.429H-107.973Z" fill="#63BABA"/>
</g>
<defs>
<clipPath id="clip0">
<rect width="1440" height="156" fill="white"/>
</clipPath>
</defs>
</svg>
